# xmcd CD database file
#
# Track frame offsets:
#	182
#	3975
#	19665
#	21827
#	37507
#	39810
#	55797
#	58355
#	71757
#	74177
#	88772
#	91775
#
# Disc length: 1415 seconds
#
# Revision: 0
# Processed by: cddbd v1.4PL0 Copyright (c) Steve Scherf et al.
# Submitted via: CDex 1.50beta10
#
DISCID=9405850c
DTITLE=Holly Dunn - Milestones - Limited Edition - Disk 1
DYEAR=1991
DGENRE=Country
TTITLE0=Holly Talks About "Daddy's Hands"
TTITLE1=Daddy's Hands
TTITLE2=Holly Talks About "Two too many"
TTITLE3=Two too many
TTITLE4=Holly Talks About "Only When I Love"
TTITLE5=Only When I Love
TTITLE6=Holly Talks About "(It's Always Gonna Be) Someday"
TTITLE7=(It's Always Gonna Be) Someday
TTITLE8=Holly Talks About "Love Someone Like Me"
TTITLE9=Love Someone Like Me
TTITLE10=Holly Talks About "Strangers Again"
TTITLE11=Strangers Again
EXTD=YEAR: 1991
EXTT0=
EXTT1=
EXTT2=
EXTT3=
EXTT4=
EXTT5=
EXTT6=
EXTT7=
EXTT8=
EXTT9=
EXTT10=
EXTT11=
PLAYORDER=
